# xmcd
#
# Track frame offsets:
#	182
#	19430
#	34807
#	50705
#	71857
#	90832
#	108232
#	125782
#	144682
#	161857
#	184135
#	202955
#	220207
#	235507
#	253130
#
# Disc length: 3636 seconds
#
# Revision: 0
# Processed by: cddbd v1.5.2PL0 Copyright (c) Steve Scherf et al.
# Submitted via: VUPlayer 2.49
#
DISCID=e10e320f
DTITLE=Bar Kings - Sippin' and A Slidin'
DYEAR=1998
DGENRE=Blues
TTITLE0=Saturday Night
TTITLE1=Tonight The House
TTITLE2=12 Bar Victim
TTITLE3=Soul On Fire
TTITLE4=Not My Own
TTITLE5=Slow Down
TTITLE6=Ring That Buzzer
TTITLE7=John Lee
TTITLE8=Treat Me Right (So Mean)
TTITLE9=What A Shame
TTITLE10=Told The Truth
TTITLE11=Remember The Face
TTITLE12=Bellhop Boogie
TTITLE13=Damned Good Lie
TTITLE14=Down The Road Apiece
EXTD=
EXTT0=
EXTT1=
EXTT2=
EXTT3=
EXTT4=
EXTT5=
EXTT6=
EXTT7=
EXTT8=
EXTT9=
EXTT10=
EXTT11=
EXTT12=
EXTT13=
EXTT14=
PLAYORDER=
